<svg width="800" height="800" viewBox="0 0 800 800" fill="none" xmlns="http://www.w3.org/2000/svg">
<path d="M0 175C0 113.144 50.1441 63 112 63H688C749.856 63 800 113.144 800 175V626C800 687.856 749.856 738 688 738H112C50.1441 738 0 687.856 0 626V175Z" fill="white"/>
<path d="M28 173.1C28 127.757 64.7575 91 110.1 91H689.9C735.243 91 772 127.758 772 173.1V627.9C772 673.243 735.242 710 689.9 710H110.1C64.7575 710 28 673.242 28 627.9V173.1Z" fill="black"/>
<rect x="97" y="160" width="606" height="481" fill="white"/>
<rect x="368" y="378" width="268" height="196" fill="#1A73E8"/>
</svg>
