<svg width="800" height="800" viewBox="0 0 800 800" fill="none" xmlns="http://www.w3.org/2000/svg">
<path d="M0 193C0 131.144 50.1441 81 112 81H688C749.856 81 800 131.144 800 193V644C800 705.856 749.856 756 688 756H112C50.1441 756 0 705.856 0 644V193Z" fill="white"/>
<path d="M28 191.1C28 145.757 64.7575 109 110.1 109H689.9C735.243 109 772 145.758 772 191.1V645.9C772 691.243 735.242 728 689.9 728H110.1C64.7575 728 28 691.243 28 645.9V191.1Z" fill="black"/>
<rect x="97" y="178" width="606" height="481" fill="white"/>
<rect x="368" y="396" width="268" height="196" fill="#1A73E8"/>
</svg>
